#!OML:ASF H:\MichaelJackson\Top Level 1\Subject 1\Session 1\male.ASF
:FULLY-SPECIFIED
:DEGREES
1935
root 3.27797 16.7737 31.0725 -354.505 32.2928 -9.93868
lowerback 2.49207 1.24635 7.03954
upperback 1.43487 1.83809 3.0299
thorax 0.203441 0.960889 -0.859236
lowerneck -5.8403 -1.43817 0.493388
upperneck 4.62798 -1.90946 -0.879527
head 2.45671 -0.968471 -0.439393
rclavicle 6.5102e-015 -1.2921e-014
rhumerus -45.0327 4.10294 -91.5776
rradius 60.3054
rwrist -9.72953
rhand -24.8517 -31.6666
rfingers 7.12502
rthumb 1.65481 -61.6399
lclavicle 6.5102e-015 -1.2921e-014
lhumerus -28.1749 -16.435 83.8172
lradius 115.667
lwrist 36.7685
lhand -17.1013 15.6836
lfingers 7.12502
lthumb 9.13762 45.4656
rfemur -18.5465 -5.25807 31.0511
rtibia 33.0352
rfoot -24.3532 12.0311
rtoes 18.2211
lfemur -53.071 15.2983 -13.3526
ltibia 65.1846
lfoot 9.55096 -9.53859
ltoes 40.0407
1936
root 3.31916 16.7621 31.1061 -354.616 32.267 -10.1914
lowerback 2.46188 1.37961 7.12483
upperback 1.43502 2.01579 3.14505
thorax 0.231292 1.0509 -0.789856
lowerneck -5.70596 -1.47151 0.325684
upperneck 4.04898 -1.94944 -0.767352
head 2.24172 -0.987856 -0.370053
rclavicle 3.44394e-014 -7.95139e-016
rhumerus -44.9325 4.3283 -91.5288
rradius 60.1234
rwrist -10.1867
rhand -24.6435 -32.0093
rfingers 7.12502
rthumb 1.85588 -61.981
lclavicle 3.44394e-014 -7.95139e-016
lhumerus -28.8173 -17.0975 84.2966
lradius 113.994
lwrist 33.932
lhand -15.3267 14.7057
lfingers 7.12502
lthumb 10.8497 44.4055
rfemur -18.3609 -5.5105 31.1862
rtibia 33.0284
rfoot -24.6365 12.3187
rtoes 17.8895
lfemur -52.9627 15.9373 -13.4301
ltibia 64.4951
lfoot 8.12775 -9.57517
ltoes 39.3278
1937
root 3.36214 16.7521 31.1442 -354.704 32.2092 -10.4128
lowerback 2.38921 1.53468 7.16007
upperback 1.42458 2.21756 3.24592
thorax 0.271922 1.15271 -0.706426
lowerneck -5.44274 -1.53611 0.38701
upperneck 3.32147 -2.03893 -0.861562
head 1.95238 -1.03366 -0.404197
rclavicle -4.22417e-014 6.04305e-014
rhumerus -44.8249 4.39052 -91.5009
rradius 59.8468
rwrist -10.3002
rhand -24.5607 -32.46
rfingers 7.12502
rthumb 1.93585 -62.4309
lclavicle -4.22417e-014 6.04305e-014
lhumerus -29.6058 -17.735 84.8296
lradius 112.264
lwrist 31.1473
lhand -14.0872 13.7625
lfingers 7.12502
lthumb 12.045 43.3959
rfemur -18.1453 -5.70737 31.2909
rtibia 33.0106
rfoot -24.9437 12.4805
rtoes 17.3745
lfemur -52.7728 16.6987 -13.6103
ltibia 63.5666
lfoot 6.52037 -9.55775
ltoes 38.1424
1938
root 3.40661 16.7427 31.1836 -354.789 32.1753 -10.664
lowerback 2.35186 1.70611 7.25994
upperback 1.36283 2.44911 3.32039
thorax 0.245102 1.26692 -0.688072
lowerneck -5.31197 -1.63444 0.309297
upperneck 2.78621 -2.17215 -0.740278
head 1.7556 -1.09762 -0.351062
rclavicle 5.01931e-014 0
rhumerus -44.7297 4.47475 -91.459
rradius 59.5197
rwrist -10.5617
rhand -24.6175 -33.0141
rfingers 7.12502
rthumb 1.88103 -62.9856
lclavicle 5.01931e-014 0
lhumerus -30.5192 -18.4162 85.4483
lradius 110.512
lwrist 28.6767
lhand -13.1821 12.9663
lfingers 7.12502
lthumb 12.9177 42.5465
rfemur -17.9405 -5.88923 31.4401
rtibia 32.9798
rfoot -25.2977 12.4947
rtoes 16.525
lfemur -52.5416 17.46 -13.7802
ltibia 62.4503
lfoot 4.91917 -9.29358
ltoes 36.9789
1939
root 3.45157 16.7331 31.2249 -354.786 32.1793 -10.7928
lowerback 2.28903 1.83071 7.20323
upperback 1.2715 2.61449 3.38528
thorax 0.19089 1.34585 -0.592123
lowerneck -5.15383 -1.69188 0.291227
upperneck 2.25402 -2.25158 -0.682846
head 1.55583 -1.13567 -0.326014
rclavicle 8.20981e-014 -3.53837e-014
rhumerus -44.6426 4.62393 -91.4333
rradius 59.1746
rwrist -10.7731
rhand -24.5096 -33.5768
rfingers 7.12502
rthumb 1.98522 -63.5473
lclavicle 8.20981e-014 -3.53837e-014
lhumerus -31.5285 -18.8128 86.0443
lradius 108.729
lwrist 26.1723
lhand -11.6607 12.4277
lfingers 7.12502
lthumb 14.3839 41.9093
rfemur -17.7638 -6.10051 31.4918
rtibia 32.9704
rfoot -25.6883 12.3888
rtoes 15.5749
lfemur -52.3065 18.2341 -14.1608
ltibia 61.1695
lfoot 3.29243 -8.93059
ltoes 35.1641
1940
root 3.50108 16.7253 31.2704 -354.762 32.1418 -10.8781
lowerback 2.18425 1.99704 7.14248
upperback 1.17227 2.83118 3.41447
thorax 0.156141 1.45078 -0.52965
lowerneck -5.06099 -1.79174 0.276056
upperneck 1.80947 -2.38786 -0.597909
head 1.39723 -1.20173 -0.295896
rclavicle 4.52235e-014 2.62396e-014
rhumerus -44.564 4.6288 -91.3443
rradius 58.8382
rwrist -10.9104
rhand -24.4571 -34.1299
rfingers 7.12502
rthumb 2.03588 -64.0999
lclavicle 4.52235e-014 2.62396e-014
lhumerus -32.6545 -19.1889 86.658
lradius 106.987
lwrist 23.939
lhand -10.2116 11.8564
lfingers 7.12502
lthumb 15.7798 41.2332
rfemur -17.5521 -6.21895 31.491
rtibia 32.961
rfoot -26.078 12.2262
rtoes 14.5755
lfemur -52.026 19.0904 -14.6545
ltibia 59.7845
lfoot 1.70234 -8.29347
ltoes 33.2801
1941
root 3.55184 16.7121 31.3195 -354.76 32.1063 -10.971
lowerback 2.09048 2.16112 7.08051
upperback 1.07401 3.04568 3.41632
thorax 0.116883 1.55459 -0.494661
lowerneck -5.00083 -1.89398 0.31422
upperneck 1.34499 -2.53008 -0.507163
head 1.23856 -1.27051 -0.27306
rclavicle -4.81059e-014 1.55052e-014
rhumerus -44.4285 4.50736 -91.3214
rradius 58.4534
rwrist -10.7867
rhand -24.3554 -34.8154
rfingers 7.12502
rthumb 2.13408 -64.7845
lclavicle -4.81059e-014 1.55052e-014
lhumerus -33.7612 -19.4377 87.2226
lradius 105.208
lwrist 21.9453
lhand -8.69574 11.6537
lfingers 7.12502
lthumb 17.2393 40.909
rfemur -17.3257 -6.51287 31.4965
rtibia 32.9634
rfoot -26.4375 12.3304
rtoes 14.0252
lfemur -51.7751 20.1342 -15.3135
ltibia 58.3235
lfoot 0.216371 -7.58543
ltoes 31.1271
1942
root 3.60583 16.7014 31.3701 -354.693 32.1451 -11.0476
lowerback 1.94862 2.29667 7.02822
upperback 0.945766 3.21971 3.41322
thorax 0.0715928 1.63766 -0.467996
lowerneck -5.06294 -1.98851 0.327076
upperneck 0.968849 -2.65982 -0.402551
head 1.13057 -1.33333 -0.243592
rclavicle 3.03147e-014 -5.1684e-015
rhumerus -44.293 4.4759 -91.2726
rradius 58.11
rwrist -10.7737
rhand -24.3699 -35.542
rfingers 7.12502
rthumb 2.12012 -65.5112
lclavicle 3.03147e-014 -5.1684e-015
lhumerus -34.8717 -19.4189 87.7504
lradius 103.398
lwrist 20.1597
lhand -6.61712 11.3901
lfingers 7.12502
lthumb 19.239 40.4585
rfemur -17.1233 -6.74129 31.4912
rtibia 32.9412
rfoot -26.8714 12.1431
rtoes 12.6524
lfemur -51.6165 21.1288 -16.054
ltibia 56.8504
lfoot -0.994692 -6.69536
ltoes 30.9041
1943
root 3.6601 16.6929 31.4217 -354.632 32.2255 -11.1101
lowerback 1.81984 2.4179 6.90774
upperback 0.79495 3.37727 3.44906
thorax -0.0119781 1.71117 -0.364786
lowerneck -5.0353 -2.08403 0.367556
upperneck 0.547386 -2.78906 -0.418588
head 0.991381 -1.39788 -0.254018
rclavicle 4.18442e-014 3.89618e-014
rhumerus -44.2031 4.37558 -91.1498
rradius 57.8103
rwrist -10.6362
rhand -24.3228 -36.2699
rfingers 7.12502
rthumb 2.16559 -66.2386
lclavicle 4.18442e-014 3.89618e-014
lhumerus -36.0433 -19.2405 88.265
lradius 101.644
lwrist 18.5472
lhand -4.15423 11.2394
lfingers 7.12502
lthumb 21.6059 40.0541
rfemur -16.9164 -7.03005 31.4658
rtibia 32.9243
rfoot -27.2003 12.1761
rtoes 12.1933
lfemur -51.4528 21.9599 -16.8046
ltibia 55.3862
lfoot -2.00117 -5.52265
ltoes 30.9622
1944
root 3.71827 16.6849 31.4762 -354.543 32.3367 -11.1979
lowerback 1.61626 2.54691 6.87
upperback 0.611463 3.54089 3.43526
thorax -0.0795648 1.78785 -0.35493
lowerneck -5.03183 -2.18988 0.345157
upperneck 0.173526 -2.93081 -0.284003
head 0.874897 -1.46666 -0.208698
rclavicle 3.28989e-014 3.10104e-014
rhumerus -44.1623 4.24627 -91.0617
rradius 57.6032
rwrist -10.5776
rhand -24.4159 -37.0192
rfingers 7.12502
rthumb 2.07573 -66.9888
lclavicle 3.28989e-014 3.10104e-014
lhumerus -37.1679 -18.8942 88.6739
lradius 99.7313
lwrist 16.9549
lhand -1.55662 10.7979
lfingers 7.12502
lthumb 24.0986 39.3045
rfemur -16.7326 -7.41199 31.4538
rtibia 32.8813
rfoot -27.5598 12.2205
rtoes 11.3143
lfemur -51.4363 22.941 -17.6924
ltibia 53.9927
lfoot -2.66256 -4.47232
ltoes 31.3402
1945
root 3.77774 16.6719 31.5326 -354.537 32.512 -11.3447
lowerback 1.39684 2.65342 6.80332
upperback 0.468852 3.67153 3.50297
thorax -0.105229 1.85036 -0.242716
lowerneck -4.93957 -2.30126 0.330048
upperneck -0.346182 -3.07771 -0.242237
head 0.697121 -1.53941 -0.19026
rclavicle -8.23962e-014 -5.76476e-014
rhumerus -44.0908 4.16989 -90.8406
rradius 57.4143
rwrist -10.5119
rhand -24.3256 -37.6882
rfingers 7.12502
rthumb 2.16289 -67.657
lclavicle -8.23962e-014 -5.76476e-014
lhumerus -38.2344 -18.3711 89.0826
lradius 97.7924
lwrist 15.4134
lhand 0.519889 10.7034
lfingers 7.12502
lthumb 26.0882 38.9317
rfemur -16.4821 -7.78372 31.4856
rtibia 32.8263
rfoot -27.8801 12.2868
rtoes 10.8894
lfemur -51.4587 24.0035 -18.6441
ltibia 52.6955
lfoot -3.08433 -3.58678
ltoes 31.1923
1946
root 3.83974 16.6589 31.5904 -354.561 32.7558 -11.4455
lowerback 1.2276 2.76058 6.76235
upperback 0.320061 3.80806 3.51166
thorax -0.159977 1.91491 -0.207606
lowerneck -4.90413 -2.4408 0.395232
upperneck -0.800331 -3.26593 -0.242025
head 0.548397 -1.63335 -0.1994
rclavicle 5.397e-014 -2.78299e-015
rhumerus -44.0477 3.87677 -90.6325
rradius 57.2736
rwrist -10.3058
rhand -24.2011 -38.1964
rfingers 7.12502
rthumb 2.28313 -68.1639
lclavicle 5.397e-014 -2.78299e-015
lhumerus -39.2931 -17.8419 89.3733
lradius 95.836
lwrist 13.9086
lhand 2.65815 10.5585
lfingers 7.12502
lthumb 28.1338 38.4679
rfemur -16.1643 -8.24863 31.4632
rtibia 32.7706
rfoot -28.2221 12.335
rtoes 10.1751
lfemur -51.4868 25.0215 -19.6648
ltibia 51.5483
lfoot -3.19366 -2.9771
ltoes 35.5348
1947
root 3.90211 16.6469 31.6494 -354.678 33.0634 -11.606
lowerback 1.09271 2.87127 6.72727
upperback 0.174462 3.95327 3.54428
thorax -0.231816 1.98371 -0.152724
lowerneck -4.82646 -2.61998 0.404471
upperneck -1.23736 -3.50405 -0.146719
head 0.401037 -1.75137 -0.170448
rclavicle 2.44505e-014 -2.38542e-014
rhumerus -44.0709 3.60269 -90.3375
rradius 57.2554
rwrist -10.4279
rhand -24.0887 -38.5238
rfingers 7.12502
rthumb 2.39173 -68.4901
lclavicle 2.44505e-014 -2.38542e-014
lhumerus -40.2803 -17.3366 89.683
lradius 93.7642
lwrist 12.3269
lhand 3.75849 10.7322
lfingers 7.12502
lthumb 29.1851 38.464
rfemur -15.8005 -8.71259 31.4842
rtibia 32.7374
rfoot -28.5357 12.325
rtoes 9.44754
lfemur -51.4924 25.9884 -20.6255
ltibia 50.6132
lfoot -3.53462 -1.93483
ltoes 42.804
1948
root 3.96622 16.6397 31.7106 -354.833 33.3932 -11.6803
lowerback 0.927664 2.97424 6.54736
upperback 0.08224 4.08034 3.58766
thorax -0.24361 2.04621 -0.00359292
lowerneck -4.69102 -2.79558 0.435487
upperneck -1.70742 -3.73741 -0.0854422
head 0.234148 -1.86764 -0.153327
rclavicle -6.76862e-014 -1.07344e-014
rhumerus -44.0586 3.28162 -89.9715
rradius 57.1953
rwrist -10.3182
rhand -23.9556 -38.5955
rfingers 7.12502
rthumb 2.52026 -68.5603
lclavicle -6.76862e-014 -1.07344e-014
lhumerus -41.2721 -16.7762 89.963
lradius 91.8124
lwrist 10.9186
lhand 4.31999 10.9469
lfingers 7.12502
lthumb 29.7212 38.5843
rfemur -15.3982 -9.33136 31.4078
rtibia 32.7586
rfoot -28.7095 12.5606
rtoes 9.38792
lfemur -51.4 26.8988 -21.6031
ltibia 49.9355
lfoot -3.99057 -0.838303
ltoes 48.3617
1949
root 4.03106 16.6296 31.7741 -355.033 33.8109 -11.7222
lowerback 0.836999 3.04439 6.30838
upperback -0.0393433 4.17258 3.62194
thorax -0.333348 2.0894 0.163207
lowerneck -4.6648 -2.99195 0.3431
upperneck -1.95614 -3.99245 0.177424
head 0.160073 -1.99297 -0.0599415
rclavicle 1.72943e-014 -3.18055e-015
rhumerus -44.1052 2.98772 -89.5315
rradius 57.1645
rwrist -10.2894
rhand -23.694 -38.3124
rfingers 7.12502
rthumb 2.77289 -68.2741
lclavicle 1.72943e-014 -3.18055e-015
lhumerus -42.3317 -16.2342 90.1983
lradius 90.0046
lwrist 9.61139
lhand 4.2105 11.3743
lfingers 7.12502
lthumb 29.6166 39.0303
rfemur -14.9837 -10.0915 31.3094
rtibia 32.8643
rfoot -28.8766 12.7353
rtoes 9.21454
lfemur -51.2263 27.7216 -22.5723
ltibia 49.5109
lfoot -4.71327 -0.155185
ltoes 51.4017
